<?xml version="1.0" encoding="utf-8"?>
<!-- Generator: Adobe Illustrator 18.0.0, SVG Export Plug-In . SVG Version: 6.00 Build 0)  -->
<!DOCTYPE svg PUBLIC "-//W3C//DTD SVG 1.1//EN" "http://www.w3.org/Graphics/SVG/1.1/DTD/svg11.dtd">
<svg version="1.1" id="Galacon_Karte" xmlns="http://www.w3.org/2000/svg" xmlns:xlink="http://www.w3.org/1999/xlink" x="0px"
	 y="0px" viewBox="0 0 750 750" enable-background="new 0 0 750 750" xml:space="preserve">
<g id="_x31_._Stock">
	<polygon fill="#F6F6F6" points="350,438.2 360.4,445.6 361.6,442.8 363.6,444.2 374.8,428.6 411.7,448 410.6,450.5 417.6,453.5 
		418.2,451.6 454.5,466.2 453.9,468 460,469.5 460.9,467.6 468,469.2 488,469.8 488,443.2 470.8,442.5 408,421.4 375.6,397.3 
		387.3,381 355.4,356.6 333,381 329.2,378 330.1,376.7 323.9,373.1 322.9,374.3 320.6,373.1 255.3,412.4 274.6,439.9 317.3,404 
		320,406.7 318.8,407.8 324.5,413.8 326,412.1 330.3,415.6 341.8,403.4 359.7,420.6 347.6,433.5 351.1,436.9 	"/>
	<g>
		<g id="_x36_">
			<polygon fill="#DADADA" points="491.6,333.4 689.5,333.4 689.5,434.2 660.9,434 632.4,441.8 603.6,459.4 603.6,505.7 
				589.7,522.5 574,510.1 572.8,511.8 557.6,501.4 558.4,498.6 520.3,480.5 519.5,482.1 505.5,475.5 506.2,473.8 491.6,467.5 			"/>
			<ellipse fill="#FFFFFF" stroke="#000000" stroke-miterlimit="10" cx="570.9" cy="421.4" rx="12.5" ry="12.1"/>
			<text transform="matrix(1.0308 0 0 1 565.0898 428.0764)" font-family="'MyriadPro-Regular'" font-size="20.5587">6</text>
		</g>
		<g id="_x37_">
			<polygon fill="#DADADA" points="593.3,525.3 608.4,507 608.4,462 634.5,446.6 661.8,439.3 689.5,439.4 689.5,568.1 642.8,568.3 
				620.4,548.5 618.9,550.4 608.5,540.1 610.2,538.6 			"/>
			<ellipse fill="#FFFFFF" stroke="#000000" stroke-miterlimit="10" cx="650.9" cy="503.3" rx="12.5" ry="12.1"/>
			<text transform="matrix(1.0308 0 0 1 646.1514 510.0549)" font-family="'MyriadPro-Regular'" font-size="20.5587">7</text>
		</g>
		<g id="_x38_">
			<polygon fill="#DADADA" points="684.7,738.1 643,738.1 630.1,698.7 683.7,672 			"/>
			<ellipse fill="#FFFFFF" stroke="#000000" stroke-miterlimit="10" cx="663.4" cy="715.4" rx="12.5" ry="12.1"/>
			<text transform="matrix(1.0308 0 0 1 657.2773 722.0666)" font-family="'MyriadPro-Regular'" font-size="20.5587">8</text>
		</g>
		<g id="_x33_">
			<polyline fill="#DADADA" points="468,469.2 488,469.8 488,469.8 504.8,477.1 505.5,475.5 519.5,482.1 518.3,484.3 556.8,503.3 
				557.6,501.4 572.8,511.8 571.9,513.3 607,541.4 608.5,540.1 618.9,550.4 617.1,552.7 638.4,573.2 651.3,588.9 669.2,588.9 
				669.2,604 684.7,604 684.5,670.8 629.7,698.9 619.8,685.3 606.2,665.6 571.3,626.5 533.8,598.7 453.9,568.8 460.5,548.8 			"/>
			<ellipse fill="#FFFFFF" stroke="#000000" stroke-miterlimit="10" cx="565.1" cy="552.2" rx="12.5" ry="12.1"/>
			<text transform="matrix(1.0308 0 0 1 560.0566 559.1389)" font-family="'MyriadPro-Regular'" font-size="20.5587">3</text>
		</g>
		<polyline fill="none" stroke="#878787" stroke-width="3" stroke-miterlimit="10" points="470.2,442.5 488,443.2 488,469.8 
			504.8,477.1 506.2,473.8 491.6,467.5 491.6,333.4 689.5,333.4 689.5,434.2 660.9,434 632.4,441.8 603.6,459.4 603.6,505.7 
			589.7,522.5 574,510.1 571.9,513.3 607,541.4 610.2,538.6 593.3,525.3 608.4,507 608.4,462 634.5,446.6 661.8,439.3 689.5,439.4 
			689.5,568.1 642.8,568.3 620.4,548.5 617.1,552.7 636.3,570.6 651.3,588.9 669.2,588.9 669.2,604 684.7,604 684.7,738.1 
			643,738.1 629.4,699 621.9,688.4 602.8,660.6 571.3,626.5 533.8,598.7 453.9,568.8 458.5,548.9 		"/>
		<polygon fill="none" stroke="#878787" stroke-width="3" stroke-miterlimit="10" points="520.3,480.5 558.4,499.6 556.8,503.3 
			518.3,484.3 		"/>
		<polyline fill="none" stroke="#878787" stroke-width="3" stroke-miterlimit="10" points="684.5,671.6 629.7,698.9 629.4,699 		"/>
		<g>
			<polygon fill="#EDEDED" points="495.8,572.5 503.7,554.1 474.3,541.5 466.2,559.8 			"/>
			<g id="Treppe_1_">
				<line fill="none" stroke="#878787" stroke-width="2" stroke-miterlimit="10" x1="477.8" y1="542.3" x2="469.5" y2="561.7"/>
				<line fill="none" stroke="#878787" stroke-width="2" stroke-miterlimit="10" x1="474.2" y1="540.8" x2="466" y2="560.2"/>
				<line fill="none" stroke="#878787" stroke-width="2" stroke-miterlimit="10" x1="481.3" y1="543.8" x2="473" y2="563.3"/>
				<path fill="none" stroke="#878787" stroke-width="2" stroke-miterlimit="10" d="M477.8,542.3"/>
				<path fill="none" stroke="#878787" stroke-width="2" stroke-miterlimit="10" d="M469.5,561.7"/>
				<line fill="none" stroke="#878787" stroke-width="2" stroke-miterlimit="10" x1="484.9" y1="545.3" x2="476.6" y2="564.8"/>
				<path fill="none" stroke="#878787" stroke-width="2" stroke-miterlimit="10" d="M481.3,543.8"/>
				<path fill="none" stroke="#878787" stroke-width="2" stroke-miterlimit="10" d="M473,563.3"/>
				<line fill="none" stroke="#878787" stroke-width="2" stroke-miterlimit="10" x1="488.4" y1="546.9" x2="480.1" y2="566.3"/>
				<path fill="none" stroke="#878787" stroke-width="2" stroke-miterlimit="10" d="M484.9,545.3"/>
				<line fill="none" stroke="#878787" stroke-width="2" stroke-miterlimit="10" x1="492" y1="548.4" x2="483.7" y2="567.8"/>
				<path fill="none" stroke="#878787" stroke-width="2" stroke-miterlimit="10" d="M488.4,546.9"/>
				<path fill="none" stroke="#878787" stroke-width="2" stroke-miterlimit="10" d="M480.1,566.3"/>
				<line fill="none" stroke="#878787" stroke-width="2" stroke-miterlimit="10" x1="495.5" y1="549.9" x2="487.2" y2="569.3"/>
				<path fill="none" stroke="#878787" stroke-width="2" stroke-miterlimit="10" d="M495.5,549.9"/>
				<path fill="none" stroke="#878787" stroke-width="2" stroke-miterlimit="10" d="M487.2,569.3"/>
				<line fill="none" stroke="#878787" stroke-width="2" stroke-miterlimit="10" x1="473.5" y1="541.2" x2="503.7" y2="554.1"/>
				<line fill="none" stroke="#878787" stroke-width="2" stroke-miterlimit="10" x1="465.7" y1="559.6" x2="495.8" y2="572.5"/>
			</g>
		</g>
		<g>
			<polygon fill="#EDEDED" points="587.5,636.7 602.1,623.1 580.2,599.8 565.9,613.5 			"/>
			<g id="Treppe_2_">
				<line fill="none" stroke="#878787" stroke-width="2" stroke-miterlimit="10" x1="583.2" y1="602" x2="567.9" y2="616.3"/>
				<line fill="none" stroke="#878787" stroke-width="2" stroke-miterlimit="10" x1="580.6" y1="599.2" x2="565.3" y2="613.5"/>
				<line fill="none" stroke="#878787" stroke-width="2" stroke-miterlimit="10" x1="585.8" y1="604.8" x2="570.5" y2="619.1"/>
				<path fill="none" stroke="#878787" stroke-width="2" stroke-miterlimit="10" d="M583.2,602"/>
				<path fill="none" stroke="#878787" stroke-width="2" stroke-miterlimit="10" d="M567.9,616.3"/>
				<line fill="none" stroke="#878787" stroke-width="2" stroke-miterlimit="10" x1="588.4" y1="607.6" x2="573.1" y2="621.9"/>
				<path fill="none" stroke="#878787" stroke-width="2" stroke-miterlimit="10" d="M585.8,604.8"/>
				<path fill="none" stroke="#878787" stroke-width="2" stroke-miterlimit="10" d="M570.5,619.1"/>
				<line fill="none" stroke="#878787" stroke-width="2" stroke-miterlimit="10" x1="591.1" y1="610.4" x2="575.7" y2="624.7"/>
				<path fill="none" stroke="#878787" stroke-width="2" stroke-miterlimit="10" d="M588.4,607.6"/>
				<line fill="none" stroke="#878787" stroke-width="2" stroke-miterlimit="10" x1="593.7" y1="613.2" x2="578.4" y2="627.5"/>
				<path fill="none" stroke="#878787" stroke-width="2" stroke-miterlimit="10" d="M591.1,610.4"/>
				<path fill="none" stroke="#878787" stroke-width="2" stroke-miterlimit="10" d="M575.7,624.7"/>
				<line fill="none" stroke="#878787" stroke-width="2" stroke-miterlimit="10" x1="596.3" y1="616" x2="581" y2="630.3"/>
				<path fill="none" stroke="#878787" stroke-width="2" stroke-miterlimit="10" d="M596.3,616"/>
				<path fill="none" stroke="#878787" stroke-width="2" stroke-miterlimit="10" d="M581,630.3"/>
				<line fill="none" stroke="#878787" stroke-width="2" stroke-miterlimit="10" x1="579.8" y1="599.2" x2="602.1" y2="623.1"/>
				<line fill="none" stroke="#878787" stroke-width="2" stroke-miterlimit="10" x1="565.2" y1="612.8" x2="587.5" y2="636.7"/>
			</g>
		</g>
	</g>
	<g id="_x35_">
		<polyline fill="#DADADA" points="466.5,204.1 485.2,193.9 390,245 375.2,248.4 287.4,235.7 247.1,160.3 247.1,152.4 247.1,129.9 
			247.1,119.8 290.9,52.1 378.6,42.6 390.8,46.8 485.2,101.5 466.5,90.5 		"/>
		<circle fill="#FFFFFF" stroke="#000000" stroke-miterlimit="10" cx="406.2" cy="145.9" r="11.8"/>
		<text transform="matrix(1.0277 0 0 1 400.7318 152.3822)" font-family="'MyriadPro-Regular'" font-size="20.5587">5</text>
	</g>
	<g id="_x34_">
		<polygon fill="#DADADA" points="247.1,152.4 247.1,129.9 247.1,119.8 290.9,52.1 378.6,42.6 390.8,46.8 466.5,90.5 466.5,204.1 
			485.6,205.3 485.6,84.9 391.9,27.7 391.9,11.9 95.7,11.9 60.5,64.7 103,99.4 169.3,183.2 212,285 291.7,275.5 295,289.3 
			335.7,289.3 335.7,272.5 390,272.5 390,258.8 485.6,205.3 466.5,204.1 390,245 375.2,248.4 287.4,235.7 247.1,160.3 		"/>
		<circle fill="#FFFFFF" stroke="#000000" stroke-miterlimit="10" cx="152.5" cy="119.1" r="11.8"/>
		<text transform="matrix(1.0277 0 0 1 147.7318 125.7155)" font-family="'MyriadPro-Regular'" font-size="20.5587">4</text>
	</g>
	<g id="_x31_0">
		<polygon fill="#DADADA" points="410,450.5 417,453.5 416.5,455.5 452.8,469.7 453.3,468 459.7,469.5 459,471.6 466.8,473.4 
			458.5,548.9 409.3,535.2 362.5,513.4 398,446.9 409,452.7 		"/>
		<circle fill="#FFFFFF" stroke="#000000" stroke-miterlimit="10" cx="418.7" cy="502.7" r="11.8"/>
		<g>
			
				<text transform="matrix(1.0273 2.857061e-002 -2.780000e-002 0.9996 407.2274 508.7825)" fill="#FFFFFF" font-family="'MyriadPro-Regular'" font-size="20.5587">10</text>
			
				<text transform="matrix(1.0273 2.857061e-002 -2.780000e-002 0.9996 407.2274 508.7825)" font-family="'MyriadPro-Regular'" font-size="20.5587">10</text>
		</g>
	</g>
	<g id="_x39_">
		<polygon fill="#DADADA" points="349.4,438.2 359.8,445.6 357.6,448 383,465.8 358.5,511.3 311.7,483.4 276.8,443.5 318.1,407.8 
			323.9,413.8 322.4,415.4 348.1,439.5 		"/>
		<circle fill="#FFFFFF" stroke="#000000" stroke-miterlimit="10" cx="326.5" cy="461.9" r="11.8"/>
		<g>
			<text transform="matrix(1.0277 0 0 1 321.7371 468.4033)" font-family="'MyriadPro-Regular'" font-size="20.5587">9</text>
		</g>
	</g>
	<g id="_x21__x22_">
		<polygon fill="#DADADA" points="323.3,373.1 329.5,376.7 330.3,375.4 331.8,376.5 352.5,353.9 321.7,293.5 291.6,293.5 
			288.6,280.3 213.4,289.9 222.9,344.5 252.9,409.4 320,373.1 		"/>
		<circle fill="#FFFFFF" stroke="#000000" stroke-miterlimit="10" cx="279.1" cy="332.2" r="11.8"/>
		<text transform="matrix(1.0277 0 0 1 267.3569 339.4033)" font-family="'MyriadPro-Regular'" font-size="20.5587">12</text>
	</g>
	<polygon fill="none" stroke="#878787" stroke-width="3" stroke-miterlimit="10" points="212,285 291.7,275.5 295,289.3 
		335.7,289.3 335.7,272.5 390,272.5 390,258.8 485.6,205.3 485.6,84.9 391.9,27.7 391.9,11.9 95.7,11.9 60.5,64.7 103,99.4 
		129.7,132.2 169.3,183.2 	"/>
	<polyline fill="none" stroke="#878787" stroke-width="3" stroke-miterlimit="10" points="369.5,81 390.8,46.8 466.5,90.5 
		466.5,204.1 390,245 369.5,207.7 	"/>
	<polyline fill="none" stroke="#878787" stroke-width="3" stroke-miterlimit="10" points="357.1,196.6 342.7,172.6 342.7,114.1 
		358,91.6 	"/>
	<polyline fill="none" stroke="#878787" stroke-width="3" stroke-miterlimit="10" points="374.7,48.4 293.2,56.6 252.7,120.9 
		252.7,129.9 247.1,129.9 247.1,119.8 290.9,52.1 378.6,42.6 	"/>
	<line fill="none" stroke="#878787" stroke-width="3" stroke-miterlimit="10" x1="378.9" y1="42.1" x2="335.6" y2="107.4"/>
	<polyline fill="none" stroke="#878787" stroke-width="3" stroke-miterlimit="10" points="276,108.7 267.4,120.9 267.4,160.3 
		276,174.4 	"/>
	<path fill="none" stroke="#878787" stroke-width="3" stroke-miterlimit="10" d="M468.8,469.5l-8.5-1.9l-1.3,4.1l7.8,1.8
		c0,0-6.9,74.9-8.4,75.5l-49.2-13.7l-46.8-21.8l35.5-66.5l11.1,5.8l2.1-4.7l-36.9-19.4L363,444.2l-2.1-1.4l-3.3,5.2l25.3,17.8
		l-24.5,45.5l-46.8-27.9l-34.9-39.9l42.6-36.8l-2.7-2.8l-42.6,36l-19.3-27.5l65.3-39.4l2.3,1.3l1.9-2.5l-4.2-2.5l-67.1,40l-30-64.8
		l-9.5-54.7l75.2-9.5l3,13.2l30.1,0l30.8,60.4l-20.7,22.6l-1.5-1.1l-1.7,2.6l3.8,2.9l22.4-24.4l31.3,24.1"/>
	<polyline fill="none" stroke="#878787" stroke-width="3" stroke-miterlimit="10" points="387.5,379.9 375,397.3 407.3,421.4 
		470.2,442.5 472.3,442.6 	"/>
	<polyline fill="none" stroke="#878787" stroke-width="3" stroke-miterlimit="10" points="336,178.2 375.2,248.4 287.4,235.7 
		247.1,160.3 247.1,152.4 252.7,152.4 252.7,159.1 291.5,230.2 372,242.7 	"/>
	<g id="Treppe_6_">
		<polygon fill="#EDEDED" points="218.1,269.8 261,257.8 252.2,226.3 209.5,238.4 		"/>
		<line fill="none" stroke="#878787" stroke-miterlimit="10" x1="216.2" y1="266.1" x2="260.9" y2="253.5"/>
		<line fill="none" stroke="#878787" stroke-miterlimit="10" x1="217.2" y1="270.2" x2="262" y2="257.6"/>
		<line fill="none" stroke="#878787" stroke-miterlimit="10" x1="215.1" y1="261.9" x2="259.7" y2="249.4"/>
		<path fill="none" stroke="#878787" stroke-width="2" stroke-miterlimit="10" d="M216.3,266.4"/>
		<path fill="none" stroke="#878787" stroke-width="2" stroke-miterlimit="10" d="M261,253.8"/>
		<line fill="none" stroke="#878787" stroke-miterlimit="10" x1="213.8" y1="257.9" x2="258.6" y2="245.3"/>
		<path fill="none" stroke="#878787" stroke-width="2" stroke-miterlimit="10" d="M215.2,262.6"/>
		<path fill="none" stroke="#878787" stroke-width="2" stroke-miterlimit="10" d="M259.9,250.1"/>
		<line fill="none" stroke="#878787" stroke-miterlimit="10" x1="212.7" y1="253.7" x2="257.4" y2="241.2"/>
		<path fill="none" stroke="#878787" stroke-width="2" stroke-miterlimit="10" d="M214.2,258.9"/>
		<line fill="none" stroke="#878787" stroke-miterlimit="10" x1="211.6" y1="249.6" x2="256.3" y2="237.1"/>
		<path fill="none" stroke="#878787" stroke-width="2" stroke-miterlimit="10" d="M213.1,255.1"/>
		<path fill="none" stroke="#878787" stroke-width="2" stroke-miterlimit="10" d="M257.8,242.5"/>
		<line fill="none" stroke="#878787" stroke-miterlimit="10" x1="210.4" y1="245.5" x2="255.1" y2="232.9"/>
		<path fill="none" stroke="#878787" stroke-width="2" stroke-miterlimit="10" d="M211,247.6"/>
		<path fill="none" stroke="#878787" stroke-width="2" stroke-miterlimit="10" d="M255.7,235"/>
		<line fill="none" stroke="#878787" stroke-width="2" stroke-miterlimit="10" x1="209.3" y1="238.4" x2="218.3" y2="270.4"/>
		<line fill="none" stroke="#878787" stroke-width="2" stroke-miterlimit="10" x1="261.2" y1="258.3" x2="252.2" y2="226.3"/>
	</g>
	<polygon fill="none" stroke="#878787" stroke-width="3" stroke-miterlimit="10" points="417.6,451.6 416.5,455 452.8,469.7 
		453.9,466.2 	"/>
	<polygon fill="none" stroke="#878787" stroke-width="3" stroke-miterlimit="10" points="322.4,415.4 325.4,412.1 329.7,415.6 
		341.2,403.4 359.1,420.6 347,433.5 350.5,436.9 348.1,439.5 	"/>
</g>
</svg>
