<?xml version="1.0" encoding="utf-8"?>
<!-- Generator: Adobe Illustrator 18.0.0, SVG Export Plug-In . SVG Version: 6.00 Build 0)  -->
<!DOCTYPE svg PUBLIC "-//W3C//DTD SVG 1.1//EN" "http://www.w3.org/Graphics/SVG/1.1/DTD/svg11.dtd">
<svg version="1.1" id="Galacon_Karte" xmlns="http://www.w3.org/2000/svg" xmlns:xlink="http://www.w3.org/1999/xlink" x="0px"
	 y="0px" viewBox="0 0 750 750" enable-background="new 0 0 750 750" xml:space="preserve">
<g id="_x32_._Stock">
	<polygon fill="#F6F6F6" points="240.1,244.2 249.9,240.3 253.8,250.8 235.1,257.7 215.4,209.1 225,205.2 	"/>
	<g id="_x31_1_1_">
		<polygon fill="#F6F6F6" points="186.2,73.1 221.3,41.4 221.3,12.1 160.4,12.1 160.4,40.9 171.3,52.8 184.8,41.3 176.6,33.3 
			205.3,33.9 175.5,59.8 		"/>
		<polygon fill="#DADADA" points="172.9,85 230,167.4 245.4,160.8 250.9,175.9 241.7,179.7 279.1,270.8 336.9,270.8 336.9,294.5 
			296.9,294.5 293.9,279.8 252.3,285 259.5,263.2 235.2,199 215,207 201.8,174.3 204.4,154.3 175.9,113.6 165.2,113.6 133.1,76.3 
			121.1,76.3 86.8,45.8 73.1,47.5 95,12.1 146,12.1 146,50.5 163.1,70.1 175.4,60.7 185.8,73.8 		"/>
		<circle fill="#FFFFFF" stroke="#000000" stroke-miterlimit="10" cx="223.2" cy="181.6" r="11.8"/>
		<text transform="matrix(1.0277 0 0 1 212.4613 187.9665)" font-family="'MyriadPro-Regular'" font-size="20.5587">11</text>
	</g>
	<polyline fill="none" stroke="#878787" stroke-width="3" stroke-miterlimit="10" points="254.3,249.5 235,256.7 201.8,174.3 
		204.4,154.3 175.9,113.6 165.2,113.6 133.1,76.3 121.1,76.3 86.8,45.8 73.1,47.5 95,12.1 146,12.1 146,50.5 163.1,70.1 175,60.3 
		185.9,73.1 172.9,85 230,167.4 245.4,160.8 250.9,175.9 241.7,179.7 279.1,270.8 336.9,270.8 336.9,294.5 296.9,294.5 293.9,279.8 
		252.3,285 259.5,263.2 235.2,199 224.7,203.5 240,243.1 250.3,239.1 	"/>
	<polyline fill="none" stroke="#878787" stroke-width="3" stroke-miterlimit="10" points="185.9,73.1 221.3,41.4 221.3,11.7 
		160.4,11.7 160.4,40.9 171.3,52.8 184.8,41.3 176.6,33.3 205.3,33.9 175,60.3 	"/>
	<line fill="none" stroke="#878787" stroke-width="3" stroke-miterlimit="10" x1="215" y1="207.7" x2="225.4" y2="203.2"/>
	<line fill="none" stroke="#878787" stroke-miterlimit="10" x1="179.2" y1="56.3" x2="190.1" y2="69.1"/>
	<line fill="none" stroke="#878787" stroke-miterlimit="10" x1="183.4" y1="53.7" x2="194.3" y2="66.4"/>
	<line fill="none" stroke="#878787" stroke-miterlimit="10" x1="185.9" y1="49.2" x2="196.8" y2="61.9"/>
	<line fill="none" stroke="#878787" stroke-miterlimit="10" x1="218" y1="217.2" x2="228.5" y2="212.7"/>
	<line fill="none" stroke="#878787" stroke-miterlimit="10" x1="221" y1="223.2" x2="231.4" y2="218.7"/>
	<line fill="none" stroke="#878787" stroke-miterlimit="10" x1="223.2" y1="229.1" x2="233.7" y2="224.6"/>
	<line fill="none" stroke="#878787" stroke-miterlimit="10" x1="225.7" y1="235.1" x2="236.2" y2="230.6"/>
	<line fill="none" stroke="#878787" stroke-miterlimit="10" x1="227.4" y1="241.4" x2="237.9" y2="236.9"/>
	<line fill="none" stroke="#878787" stroke-miterlimit="10" x1="230.9" y1="246.8" x2="241.4" y2="242.4"/>
	<line fill="none" stroke="#878787" stroke-miterlimit="10" x1="250.1" y1="251" x2="245.9" y2="240.4"/>
	<line fill="none" stroke="#878787" stroke-miterlimit="10" x1="243.7" y1="252.9" x2="239.5" y2="242.3"/>
	<line fill="none" stroke="#878787" stroke-miterlimit="10" x1="217.7" y1="213.8" x2="228.2" y2="209.3"/>
	<line fill="none" stroke="#878787" stroke-miterlimit="10" x1="220.2" y1="219.9" x2="230.7" y2="215.4"/>
	<line fill="none" stroke="#878787" stroke-miterlimit="10" x1="222.2" y1="226.1" x2="232.6" y2="221.6"/>
	<line fill="none" stroke="#878787" stroke-miterlimit="10" x1="224.4" y1="232.3" x2="234.8" y2="227.8"/>
	<line fill="none" stroke="#878787" stroke-miterlimit="10" x1="227.4" y1="237.9" x2="237.9" y2="233.5"/>
	<line fill="none" stroke="#878787" stroke-miterlimit="10" x1="228.9" y1="244.3" x2="239.3" y2="239.8"/>
	<line fill="none" stroke="#878787" stroke-miterlimit="10" x1="247.1" y1="252.6" x2="242.9" y2="242"/>
	<line fill="none" stroke="#878787" stroke-miterlimit="10" x1="216.4" y1="211.3" x2="226.9" y2="206.8"/>
	<line fill="none" stroke="#878787" stroke-miterlimit="10" x1="189.9" y1="46.3" x2="200.8" y2="59.1"/>
	<line fill="none" stroke="#878787" stroke-miterlimit="10" x1="193.9" y1="43.6" x2="204.8" y2="56.3"/>
	<line fill="none" stroke="#878787" stroke-miterlimit="10" x1="197.6" y1="40" x2="208.5" y2="52.7"/>
	<line fill="none" stroke="#878787" stroke-miterlimit="10" x1="201.6" y1="36.4" x2="212.5" y2="49.2"/>
	<line fill="none" stroke="#878787" stroke-miterlimit="10" x1="205.9" y1="33.1" x2="216.8" y2="45.8"/>
	<line fill="none" stroke="#878787" stroke-miterlimit="10" x1="206.6" y1="33.4" x2="206.6" y2="11.9"/>
	<line fill="none" stroke="#878787" stroke-miterlimit="10" x1="201.4" y1="33.6" x2="201.4" y2="12.2"/>
	<line fill="none" stroke="#878787" stroke-miterlimit="10" x1="196.2" y1="32.8" x2="196.2" y2="11.4"/>
	<line fill="none" stroke="#878787" stroke-miterlimit="10" x1="191" y1="33.4" x2="191" y2="11.9"/>
	<line fill="none" stroke="#878787" stroke-miterlimit="10" x1="185.8" y1="33.2" x2="185.8" y2="11.7"/>
	<line fill="none" stroke="#878787" stroke-miterlimit="10" x1="180.6" y1="33.4" x2="180.6" y2="11.9"/>
	<line fill="none" stroke="#878787" stroke-miterlimit="10" x1="175.4" y1="32.7" x2="175.4" y2="11.2"/>
	<line fill="none" stroke="#878787" stroke-miterlimit="10" x1="165.1" y1="46.6" x2="178.5" y2="35.1"/>
	<line fill="none" stroke="#878787" stroke-miterlimit="10" x1="162.2" y1="43.6" x2="175.6" y2="32.1"/>
	<line fill="none" stroke="#878787" stroke-miterlimit="10" x1="168.4" y1="48.9" x2="181.8" y2="37.4"/>
</g>
</svg>
